<mxfile host="app.diagrams.net" modified="2024-03-25T15:42:08.707Z" agent="Mozilla/5.0 (Windows NT 10.0; Win64; x64) AppleWebKit/537.36 (KHTML, like Gecko) Chrome/122.0.0.0 Safari/537.36" etag="VprnYpq9ZLwciWSwaNGV" version="24.1.0" type="device">
  <diagram name="Sayfa -1" id="P9lipU5ZDzwzDeAKVpZm">
    <mxGraphModel dx="1706" dy="946" grid="1" gridSize="10" guides="1" tooltips="1" connect="1" arrows="1" fold="1" page="1" pageScale="1" pageWidth="1169" pageHeight="1654" math="0" shadow="0">
      <root>
        <mxCell id="0" />
        <mxCell id="1" parent="0" />
        <mxCell id="kP2LNIARqs1eED2hZesb-1" value="&lt;font style=&quot;font-size: 14px;&quot;&gt;MasterCard&lt;/font&gt;" style="html=1;outlineConnect=0;fillColor=#CCCCCC;strokeColor=#6881B3;gradientColor=none;gradientDirection=north;strokeWidth=2;shape=mxgraph.networks.cloud;fontColor=#ffffff;verticalAlign=middle;" parent="1" vertex="1">
          <mxGeometry x="80" y="80" width="130" height="90" as="geometry" />
        </mxCell>
        <mxCell id="kP2LNIARqs1eED2hZesb-2" value="&lt;font style=&quot;font-size: 14px;&quot;&gt;Acquier Bank&lt;/font&gt;" style="html=1;outlineConnect=0;fillColor=#CCCCCC;strokeColor=#6881B3;gradientColor=none;gradientDirection=north;strokeWidth=2;shape=mxgraph.networks.cloud;fontColor=#ffffff;verticalAlign=middle;" parent="1" vertex="1">
          <mxGeometry x="80" y="320" width="130" height="90" as="geometry" />
        </mxCell>
        <mxCell id="kP2LNIARqs1eED2hZesb-5" value="" style="endArrow=classic;startArrow=classic;html=1;rounded=0;entryX=0.5;entryY=1;entryDx=0;entryDy=0;entryPerimeter=0;exitX=0.5;exitY=0.08;exitDx=0;exitDy=0;exitPerimeter=0;" parent="1" source="kP2LNIARqs1eED2hZesb-2" target="kP2LNIARqs1eED2hZesb-1" edge="1">
          <mxGeometry width="50" height="50" relative="1" as="geometry">
            <mxPoint x="150" y="320" as="sourcePoint" />
            <mxPoint x="150" y="170" as="targetPoint" />
          </mxGeometry>
        </mxCell>
        <mxCell id="kP2LNIARqs1eED2hZesb-6" value="" style="endArrow=classic;startArrow=classic;html=1;rounded=0;exitX=0.26;exitY=0.22;exitDx=0;exitDy=0;exitPerimeter=0;entryX=0.256;entryY=0.957;entryDx=0;entryDy=0;entryPerimeter=0;" parent="1" source="kP2LNIARqs1eED2hZesb-2" target="kP2LNIARqs1eED2hZesb-1" edge="1">
          <mxGeometry width="50" height="50" relative="1" as="geometry">
            <mxPoint x="100" y="310" as="sourcePoint" />
            <mxPoint x="100" y="210" as="targetPoint" />
          </mxGeometry>
        </mxCell>
        <mxCell id="kP2LNIARqs1eED2hZesb-10" value="" style="endArrow=classic;startArrow=classic;html=1;rounded=0;entryX=0.5;entryY=1;entryDx=0;entryDy=0;entryPerimeter=0;exitX=0.5;exitY=0;exitDx=0;exitDy=0;" parent="1" source="kP2LNIARqs1eED2hZesb-96" target="kP2LNIARqs1eED2hZesb-2" edge="1">
          <mxGeometry width="50" height="50" relative="1" as="geometry">
            <mxPoint x="145" y="549.9999999999998" as="sourcePoint" />
            <mxPoint x="144.50000000000006" y="410" as="targetPoint" />
          </mxGeometry>
        </mxCell>
        <mxCell id="kP2LNIARqs1eED2hZesb-11" value="" style="endArrow=classic;startArrow=classic;html=1;rounded=0;exitX=0.229;exitY=0.02;exitDx=0;exitDy=0;entryX=0.14;entryY=1;entryDx=0;entryDy=0;entryPerimeter=0;exitPerimeter=0;" parent="1" source="kP2LNIARqs1eED2hZesb-92" target="kP2LNIARqs1eED2hZesb-2" edge="1">
          <mxGeometry width="50" height="50" relative="1" as="geometry">
            <mxPoint x="27.5" y="479.9999999999998" as="sourcePoint" />
            <mxPoint x="90" y="410" as="targetPoint" />
            <Array as="points" />
          </mxGeometry>
        </mxCell>
        <mxCell id="kP2LNIARqs1eED2hZesb-15" value="&lt;div style=&quot;font-size: 16px;&quot;&gt;&lt;font color=&quot;#000000&quot;&gt;11.0.0.2&lt;/font&gt;&lt;/div&gt;" style="text;html=1;align=center;verticalAlign=middle;resizable=0;points=[];autosize=1;strokeColor=none;fillColor=none;fontSize=16;fontColor=#3370ff;" parent="1" vertex="1">
          <mxGeometry x="370" y="90" width="80" height="30" as="geometry" />
        </mxCell>
        <mxCell id="kP2LNIARqs1eED2hZesb-21" value="&lt;font style=&quot;font-size: 14px;&quot;&gt;Card Authorization 1 Node 1&lt;/font&gt;" style="rounded=0;whiteSpace=wrap;html=1;" parent="1" vertex="1">
          <mxGeometry x="340" y="470" width="140" height="75" as="geometry" />
        </mxCell>
        <mxCell id="kP2LNIARqs1eED2hZesb-22" value="&lt;font style=&quot;font-size: 14px;&quot;&gt;Card Authorization 2 Node 2&lt;/font&gt;" style="rounded=0;whiteSpace=wrap;html=1;" parent="1" vertex="1">
          <mxGeometry x="340" y="630" width="140" height="60" as="geometry" />
        </mxCell>
        <mxCell id="kP2LNIARqs1eED2hZesb-31" value="&lt;font style=&quot;font-size: 14px;&quot;&gt;Hsm Driver 1&amp;nbsp;&lt;/font&gt;" style="rounded=0;whiteSpace=wrap;html=1;" parent="1" vertex="1">
          <mxGeometry x="625" y="100" width="90" height="90" as="geometry" />
        </mxCell>
        <mxCell id="l79eTYfMoInAxwR3opUY-2" style="edgeStyle=orthogonalEdgeStyle;rounded=0;orthogonalLoop=1;jettySize=auto;html=1;entryX=0.5;entryY=1;entryDx=0;entryDy=0;" edge="1" parent="1" source="kP2LNIARqs1eED2hZesb-32" target="kP2LNIARqs1eED2hZesb-31">
          <mxGeometry relative="1" as="geometry">
            <mxPoint x="620" y="220" as="targetPoint" />
            <Array as="points">
              <mxPoint x="570" y="380" />
              <mxPoint x="570" y="190" />
            </Array>
          </mxGeometry>
        </mxCell>
        <mxCell id="kP2LNIARqs1eED2hZesb-32" value="&lt;font style=&quot;font-size: 14px;&quot;&gt;Hsm Driver 2&amp;nbsp;&lt;/font&gt;" style="rounded=0;whiteSpace=wrap;html=1;" parent="1" vertex="1">
          <mxGeometry x="625" y="335" width="90" height="90" as="geometry" />
        </mxCell>
        <mxCell id="kP2LNIARqs1eED2hZesb-34" value="&lt;div style=&quot;text-align: center;&quot;&gt;&lt;span style=&quot;font-size: 16px; text-wrap: nowrap;&quot;&gt;11.0.0.1&lt;/span&gt;&lt;/div&gt;&lt;div style=&quot;text-align: center;&quot;&gt;&lt;span style=&quot;color: rgb(51, 112, 255); font-family: Helvetica; font-size: 16px; font-style: normal; font-variant-ligatures: normal; font-variant-caps: normal; font-weight: 400; letter-spacing: normal; orphans: 2; text-indent: 0px; text-transform: none; widows: 2; word-spacing: 0px; -webkit-text-stroke-width: 0px; white-space: nowrap; background-color: rgb(251, 251, 251); text-decoration-thickness: initial; text-decoration-style: initial; text-decoration-color: initial; float: none; display: inline !important;&quot;&gt;&lt;br&gt;&lt;/span&gt;&lt;/div&gt;" style="text;whiteSpace=wrap;html=1;" parent="1" vertex="1">
          <mxGeometry x="640" y="70" width="90" height="40" as="geometry" />
        </mxCell>
        <mxCell id="kP2LNIARqs1eED2hZesb-35" value="&lt;span style=&quot;font-family: Helvetica; font-size: 16px; font-style: normal; font-variant-ligatures: normal; font-variant-caps: normal; font-weight: 400; letter-spacing: normal; orphans: 2; text-align: center; text-indent: 0px; text-transform: none; widows: 2; word-spacing: 0px; -webkit-text-stroke-width: 0px; white-space: nowrap; background-color: rgb(251, 251, 251); text-decoration-thickness: initial; text-decoration-style: initial; text-decoration-color: initial; float: none; display: inline !important;&quot;&gt;11.0.0.3&lt;/span&gt;" style="text;whiteSpace=wrap;html=1;" parent="1" vertex="1">
          <mxGeometry x="380" y="250" width="90" height="40" as="geometry" />
        </mxCell>
        <mxCell id="kP2LNIARqs1eED2hZesb-36" value="" style="fontColor=#0066CC;verticalAlign=top;verticalLabelPosition=bottom;labelPosition=center;align=center;html=1;outlineConnect=0;fillColor=#CCCCCC;strokeColor=#6881B3;gradientColor=none;gradientDirection=north;strokeWidth=2;shape=mxgraph.networks.storage;" parent="1" vertex="1">
          <mxGeometry x="600" y="470.5" width="140" height="144" as="geometry" />
        </mxCell>
        <mxCell id="fi_tDTi4I4UgMJIOH_Q9-8" style="edgeStyle=orthogonalEdgeStyle;rounded=0;orthogonalLoop=1;jettySize=auto;html=1;exitX=0;exitY=0.5;exitDx=0;exitDy=0;entryX=0;entryY=0.75;entryDx=0;entryDy=0;" parent="1" source="kP2LNIARqs1eED2hZesb-38" target="kP2LNIARqs1eED2hZesb-22" edge="1">
          <mxGeometry relative="1" as="geometry">
            <Array as="points">
              <mxPoint x="220" y="150" />
              <mxPoint x="220" y="675" />
            </Array>
          </mxGeometry>
        </mxCell>
        <mxCell id="fi_tDTi4I4UgMJIOH_Q9-10" style="edgeStyle=orthogonalEdgeStyle;rounded=0;orthogonalLoop=1;jettySize=auto;html=1;exitX=0;exitY=0.75;exitDx=0;exitDy=0;entryX=0;entryY=0.75;entryDx=0;entryDy=0;" parent="1" source="kP2LNIARqs1eED2hZesb-38" target="kP2LNIARqs1eED2hZesb-21" edge="1">
          <mxGeometry relative="1" as="geometry">
            <Array as="points">
              <mxPoint x="260" y="165" />
              <mxPoint x="260" y="526" />
            </Array>
          </mxGeometry>
        </mxCell>
        <mxCell id="h-e5Dq-OJheFKzaR_dxj-3" style="edgeStyle=orthogonalEdgeStyle;rounded=0;orthogonalLoop=1;jettySize=auto;html=1;exitX=1;exitY=0.5;exitDx=0;exitDy=0;entryX=0;entryY=0.25;entryDx=0;entryDy=0;" parent="1" source="kP2LNIARqs1eED2hZesb-38" target="h-e5Dq-OJheFKzaR_dxj-2" edge="1">
          <mxGeometry relative="1" as="geometry">
            <Array as="points">
              <mxPoint x="480" y="250" />
              <mxPoint x="760" y="250" />
              <mxPoint x="760" y="360" />
              <mxPoint x="810" y="360" />
              <mxPoint x="810" y="368" />
            </Array>
          </mxGeometry>
        </mxCell>
        <mxCell id="kP2LNIARqs1eED2hZesb-38" value="&lt;font style=&quot;font-size: 14px;&quot;&gt;MasterCard Switch&lt;/font&gt;&lt;div style=&quot;font-size: 14px;&quot;&gt;&lt;br style=&quot;color: rgb(51, 112, 255); text-wrap: nowrap;&quot;&gt;&lt;/div&gt;" style="rounded=0;whiteSpace=wrap;html=1;align=center;" parent="1" vertex="1">
          <mxGeometry x="340" y="120" width="140" height="60" as="geometry" />
        </mxCell>
        <mxCell id="fi_tDTi4I4UgMJIOH_Q9-9" style="edgeStyle=orthogonalEdgeStyle;rounded=0;orthogonalLoop=1;jettySize=auto;html=1;exitX=0;exitY=0.5;exitDx=0;exitDy=0;entryX=0;entryY=0.5;entryDx=0;entryDy=0;" parent="1" source="kP2LNIARqs1eED2hZesb-39" target="kP2LNIARqs1eED2hZesb-22" edge="1">
          <mxGeometry relative="1" as="geometry">
            <Array as="points">
              <mxPoint x="240" y="325" />
              <mxPoint x="240" y="660" />
            </Array>
          </mxGeometry>
        </mxCell>
        <mxCell id="fi_tDTi4I4UgMJIOH_Q9-11" style="edgeStyle=orthogonalEdgeStyle;rounded=0;orthogonalLoop=1;jettySize=auto;html=1;exitX=0;exitY=0.75;exitDx=0;exitDy=0;entryX=0;entryY=0.5;entryDx=0;entryDy=0;" parent="1" source="kP2LNIARqs1eED2hZesb-39" target="kP2LNIARqs1eED2hZesb-21" edge="1">
          <mxGeometry relative="1" as="geometry">
            <Array as="points">
              <mxPoint x="280" y="343" />
              <mxPoint x="280" y="508" />
            </Array>
          </mxGeometry>
        </mxCell>
        <mxCell id="kP2LNIARqs1eED2hZesb-39" value="&lt;font style=&quot;font-size: 14px;&quot;&gt;MasterCard Switch 2&lt;/font&gt;&lt;div style=&quot;font-size: 14px;&quot;&gt;&lt;br style=&quot;color: rgb(51, 112, 255); text-wrap: nowrap;&quot;&gt;&lt;/div&gt;" style="rounded=0;whiteSpace=wrap;html=1;align=center;" parent="1" vertex="1">
          <mxGeometry x="340" y="290" width="140" height="70" as="geometry" />
        </mxCell>
        <mxCell id="kP2LNIARqs1eED2hZesb-40" value="" style="endArrow=classic;startArrow=classic;html=1;rounded=0;exitX=0;exitY=0.5;exitDx=0;exitDy=0;entryX=0.98;entryY=0.389;entryDx=0;entryDy=0;entryPerimeter=0;" parent="1" source="kP2LNIARqs1eED2hZesb-31" target="kP2LNIARqs1eED2hZesb-38" edge="1">
          <mxGeometry width="50" height="50" relative="1" as="geometry">
            <mxPoint x="580" y="160" as="sourcePoint" />
            <mxPoint x="480" y="145" as="targetPoint" />
          </mxGeometry>
        </mxCell>
        <mxCell id="kP2LNIARqs1eED2hZesb-41" value="&lt;font style=&quot;font-size: 14px;&quot;&gt;External Authorization&lt;/font&gt;&lt;div&gt;&lt;font style=&quot;font-size: 14px;&quot;&gt;&lt;br&gt;&lt;/font&gt;&lt;/div&gt;" style="html=1;outlineConnect=0;fillColor=#CCCCCC;strokeColor=#6881B3;gradientColor=none;gradientDirection=north;strokeWidth=2;shape=mxgraph.networks.cloud;fontColor=#ffffff;verticalAlign=middle;" parent="1" vertex="1">
          <mxGeometry x="690" y="670" width="240" height="110" as="geometry" />
        </mxCell>
        <mxCell id="kP2LNIARqs1eED2hZesb-42" value="" style="endArrow=classic;startArrow=classic;html=1;rounded=0;exitX=-0.001;exitY=0.82;exitDx=0;exitDy=0;exitPerimeter=0;entryX=1.064;entryY=0.644;entryDx=0;entryDy=0;entryPerimeter=0;" parent="1" source="kP2LNIARqs1eED2hZesb-41" target="kP2LNIARqs1eED2hZesb-22" edge="1">
          <mxGeometry width="50" height="50" relative="1" as="geometry">
            <mxPoint x="720" y="660" as="sourcePoint" />
            <mxPoint x="480" y="660" as="targetPoint" />
          </mxGeometry>
        </mxCell>
        <mxCell id="kP2LNIARqs1eED2hZesb-48" value="" style="endArrow=classic;startArrow=classic;html=1;rounded=0;entryX=1.036;entryY=0.877;entryDx=0;entryDy=0;entryPerimeter=0;exitX=0.06;exitY=0.5;exitDx=0;exitDy=0;exitPerimeter=0;" parent="1" source="kP2LNIARqs1eED2hZesb-41" target="kP2LNIARqs1eED2hZesb-21" edge="1">
          <mxGeometry width="50" height="50" relative="1" as="geometry">
            <mxPoint x="750" y="580" as="sourcePoint" />
            <mxPoint x="480" y="470" as="targetPoint" />
          </mxGeometry>
        </mxCell>
        <mxCell id="kP2LNIARqs1eED2hZesb-52" value="" style="endArrow=classic;startArrow=classic;html=1;rounded=0;exitX=0.03;exitY=0.608;exitDx=0;exitDy=0;exitPerimeter=0;entryX=1;entryY=0.5;entryDx=0;entryDy=0;" parent="1" source="kP2LNIARqs1eED2hZesb-32" target="kP2LNIARqs1eED2hZesb-39" edge="1">
          <mxGeometry width="50" height="50" relative="1" as="geometry">
            <mxPoint x="595" y="294.40999999999997" as="sourcePoint" />
            <mxPoint x="510" y="320" as="targetPoint" />
          </mxGeometry>
        </mxCell>
        <mxCell id="kP2LNIARqs1eED2hZesb-53" value="" style="endArrow=classic;startArrow=classic;html=1;rounded=0;exitX=0.952;exitY=0.025;exitDx=0;exitDy=0;entryX=-0.005;entryY=0.856;entryDx=0;entryDy=0;entryPerimeter=0;exitPerimeter=0;" parent="1" source="kP2LNIARqs1eED2hZesb-39" target="kP2LNIARqs1eED2hZesb-31" edge="1">
          <mxGeometry width="50" height="50" relative="1" as="geometry">
            <mxPoint x="480" y="275" as="sourcePoint" />
            <mxPoint x="550" y="205" as="targetPoint" />
            <Array as="points" />
          </mxGeometry>
        </mxCell>
        <mxCell id="kP2LNIARqs1eED2hZesb-61" value="&lt;div style=&quot;font-size: 14px;&quot;&gt;Thales Hsm 10k1&lt;/div&gt;" style="rounded=0;whiteSpace=wrap;html=1;align=center;" parent="1" vertex="1">
          <mxGeometry x="872.5" y="115" width="140" height="60" as="geometry" />
        </mxCell>
        <mxCell id="kP2LNIARqs1eED2hZesb-69" value="&lt;div style=&quot;text-align: center;&quot;&gt;&lt;span style=&quot;font-size: 16px; text-wrap: nowrap;&quot;&gt;10.0.0.1&lt;/span&gt;&lt;/div&gt;&lt;div style=&quot;text-align: center;&quot;&gt;&lt;span style=&quot;color: rgb(51, 112, 255); font-family: Helvetica; font-size: 16px; font-style: normal; font-variant-ligatures: normal; font-variant-caps: normal; font-weight: 400; letter-spacing: normal; orphans: 2; text-indent: 0px; text-transform: none; widows: 2; word-spacing: 0px; -webkit-text-stroke-width: 0px; white-space: nowrap; background-color: rgb(251, 251, 251); text-decoration-thickness: initial; text-decoration-style: initial; text-decoration-color: initial; float: none; display: inline !important;&quot;&gt;&lt;br&gt;&lt;/span&gt;&lt;/div&gt;" style="text;whiteSpace=wrap;html=1;" parent="1" vertex="1">
          <mxGeometry x="897.5" y="80" width="90" height="40" as="geometry" />
        </mxCell>
        <mxCell id="kP2LNIARqs1eED2hZesb-70" value="&lt;div style=&quot;font-size: 14px;&quot;&gt;Thales Hsm 10k2&lt;/div&gt;" style="rounded=0;whiteSpace=wrap;html=1;align=center;" parent="1" vertex="1">
          <mxGeometry x="872.5" y="240" width="140" height="60" as="geometry" />
        </mxCell>
        <mxCell id="kP2LNIARqs1eED2hZesb-71" value="" style="endArrow=classic;startArrow=classic;html=1;rounded=0;exitX=0;exitY=0.5;exitDx=0;exitDy=0;entryX=1;entryY=0.5;entryDx=0;entryDy=0;" parent="1" source="kP2LNIARqs1eED2hZesb-61" target="kP2LNIARqs1eED2hZesb-31" edge="1">
          <mxGeometry width="50" height="50" relative="1" as="geometry">
            <mxPoint x="813" y="145" as="sourcePoint" />
            <mxPoint x="730" y="143" as="targetPoint" />
          </mxGeometry>
        </mxCell>
        <mxCell id="kP2LNIARqs1eED2hZesb-72" value="" style="endArrow=classic;startArrow=classic;html=1;rounded=0;exitX=0;exitY=0;exitDx=0;exitDy=0;entryX=1.006;entryY=0.673;entryDx=0;entryDy=0;entryPerimeter=0;" parent="1" source="kP2LNIARqs1eED2hZesb-70" target="kP2LNIARqs1eED2hZesb-31" edge="1">
          <mxGeometry width="50" height="50" relative="1" as="geometry">
            <mxPoint x="830" y="170" as="sourcePoint" />
            <mxPoint x="690" y="170" as="targetPoint" />
          </mxGeometry>
        </mxCell>
        <mxCell id="kP2LNIARqs1eED2hZesb-73" value="" style="endArrow=classic;startArrow=classic;html=1;rounded=0;exitX=0;exitY=0.75;exitDx=0;exitDy=0;entryX=1;entryY=0;entryDx=0;entryDy=0;" parent="1" source="kP2LNIARqs1eED2hZesb-61" target="kP2LNIARqs1eED2hZesb-32" edge="1">
          <mxGeometry width="50" height="50" relative="1" as="geometry">
            <mxPoint x="829" y="330" as="sourcePoint" />
            <mxPoint x="690" y="251" as="targetPoint" />
          </mxGeometry>
        </mxCell>
        <mxCell id="kP2LNIARqs1eED2hZesb-74" value="&lt;div style=&quot;text-align: center;&quot;&gt;&lt;span style=&quot;font-size: 16px; text-wrap: nowrap;&quot;&gt;12.0.0.1&lt;/span&gt;&lt;/div&gt;&lt;div style=&quot;text-align: center;&quot;&gt;&lt;span style=&quot;color: rgb(51, 112, 255); font-family: Helvetica; font-size: 16px; font-style: normal; font-variant-ligatures: normal; font-variant-caps: normal; font-weight: 400; letter-spacing: normal; orphans: 2; text-indent: 0px; text-transform: none; widows: 2; word-spacing: 0px; -webkit-text-stroke-width: 0px; white-space: nowrap; background-color: rgb(251, 251, 251); text-decoration-thickness: initial; text-decoration-style: initial; text-decoration-color: initial; float: none; display: inline !important;&quot;&gt;&lt;br&gt;&lt;/span&gt;&lt;/div&gt;" style="text;whiteSpace=wrap;html=1;" parent="1" vertex="1">
          <mxGeometry x="670" y="432.5" width="90" height="40" as="geometry" />
        </mxCell>
        <mxCell id="kP2LNIARqs1eED2hZesb-75" value="" style="fontColor=#0066CC;verticalAlign=top;verticalLabelPosition=bottom;labelPosition=center;align=center;html=1;outlineConnect=0;fillColor=#CCCCCC;strokeColor=#6881B3;gradientColor=none;gradientDirection=north;strokeWidth=2;shape=mxgraph.networks.storage;" parent="1" vertex="1">
          <mxGeometry x="1012.5" y="465" width="130" height="155" as="geometry" />
        </mxCell>
        <mxCell id="kP2LNIARqs1eED2hZesb-77" value="&lt;span style=&quot;font-family: Helvetica; font-size: 16px; font-style: normal; font-variant-ligatures: normal; font-variant-caps: normal; font-weight: 400; letter-spacing: normal; orphans: 2; text-indent: 0px; text-transform: none; widows: 2; word-spacing: 0px; -webkit-text-stroke-width: 0px; white-space: nowrap; background-color: rgb(251, 251, 251); text-decoration-thickness: initial; text-decoration-style: initial; text-decoration-color: initial; float: none; display: inline !important;&quot;&gt;12.0.0.2&lt;/span&gt;" style="text;whiteSpace=wrap;html=1;align=center;" parent="1" vertex="1">
          <mxGeometry x="1079" y="425" width="90" height="40" as="geometry" />
        </mxCell>
        <mxCell id="kP2LNIARqs1eED2hZesb-92" value="" style="image;points=[];aspect=fixed;html=1;align=center;shadow=0;dashed=0;image=img/lib/allied_telesis/computer_and_terminals/POS_keypad.svg;" parent="1" vertex="1">
          <mxGeometry x="10" y="500" width="67.39" height="50" as="geometry" />
        </mxCell>
        <mxCell id="kP2LNIARqs1eED2hZesb-95" value="&lt;span style=&quot;font-size: 14px;&quot;&gt;POS&lt;/span&gt;" style="text;whiteSpace=wrap;html=1;" parent="1" vertex="1">
          <mxGeometry y="550" width="60" height="40" as="geometry" />
        </mxCell>
        <mxCell id="kP2LNIARqs1eED2hZesb-96" value="&lt;font style=&quot;font-size: 14px;&quot;&gt;ATM&lt;/font&gt;" style="rounded=0;whiteSpace=wrap;html=1;" parent="1" vertex="1">
          <mxGeometry x="95" y="550" width="100" height="70" as="geometry" />
        </mxCell>
        <mxCell id="kP2LNIARqs1eED2hZesb-97" value="&lt;span style=&quot;font-family: Helvetica; font-size: 16px; font-style: normal; font-variant-ligatures: normal; font-variant-caps: normal; font-weight: 400; letter-spacing: normal; orphans: 2; text-align: center; text-indent: 0px; text-transform: none; widows: 2; word-spacing: 0px; -webkit-text-stroke-width: 0px; white-space: nowrap; background-color: rgb(251, 251, 251); text-decoration-thickness: initial; text-decoration-style: initial; text-decoration-color: initial; float: none; display: inline !important;&quot;&gt;11.0.0.4&lt;/span&gt;" style="text;whiteSpace=wrap;html=1;" parent="1" vertex="1">
          <mxGeometry x="380" y="432.5" width="90" height="40" as="geometry" />
        </mxCell>
        <mxCell id="kP2LNIARqs1eED2hZesb-98" value="&lt;div style=&quot;text-align: center;&quot;&gt;&lt;span style=&quot;font-size: 16px; text-wrap: nowrap;&quot;&gt;11.0.0.1&lt;/span&gt;&lt;/div&gt;&lt;div style=&quot;text-align: center;&quot;&gt;&lt;span style=&quot;color: rgb(51, 112, 255); font-family: Helvetica; font-size: 16px; font-style: normal; font-variant-ligatures: normal; font-variant-caps: normal; font-weight: 400; letter-spacing: normal; orphans: 2; text-indent: 0px; text-transform: none; widows: 2; word-spacing: 0px; -webkit-text-stroke-width: 0px; white-space: nowrap; background-color: rgb(251, 251, 251); text-decoration-thickness: initial; text-decoration-style: initial; text-decoration-color: initial; float: none; display: inline !important;&quot;&gt;&lt;br&gt;&lt;/span&gt;&lt;/div&gt;" style="text;whiteSpace=wrap;html=1;" parent="1" vertex="1">
          <mxGeometry x="640" y="300" width="90" height="40" as="geometry" />
        </mxCell>
        <mxCell id="gqp5SHRF2VBlGf5a30nO-1" value="Switch Network Diagram" style="text;strokeColor=none;fillColor=none;html=1;fontSize=24;fontStyle=1;verticalAlign=middle;align=center;" parent="1" vertex="1">
          <mxGeometry x="550" y="10" width="100" height="40" as="geometry" />
        </mxCell>
        <mxCell id="fi_tDTi4I4UgMJIOH_Q9-4" value="&lt;font style=&quot;font-size: 14px;&quot;&gt;Card Database&lt;/font&gt;" style="text;html=1;align=center;verticalAlign=middle;resizable=0;points=[];autosize=1;strokeColor=none;fillColor=none;" parent="1" vertex="1">
          <mxGeometry x="610" y="485" width="120" height="30" as="geometry" />
        </mxCell>
        <mxCell id="fi_tDTi4I4UgMJIOH_Q9-5" value="&lt;font style=&quot;font-size: 14px;&quot;&gt;Token Database&lt;/font&gt;" style="text;html=1;align=center;verticalAlign=middle;resizable=0;points=[];autosize=1;strokeColor=none;fillColor=none;fontSize=14;" parent="1" vertex="1">
          <mxGeometry x="1017.5" y="472.5" width="120" height="30" as="geometry" />
        </mxCell>
        <mxCell id="fi_tDTi4I4UgMJIOH_Q9-12" style="edgeStyle=orthogonalEdgeStyle;rounded=0;orthogonalLoop=1;jettySize=auto;html=1;exitX=1;exitY=0.5;exitDx=0;exitDy=0;entryX=0.5;entryY=1;entryDx=0;entryDy=0;entryPerimeter=0;" parent="1" source="kP2LNIARqs1eED2hZesb-22" target="kP2LNIARqs1eED2hZesb-36" edge="1">
          <mxGeometry relative="1" as="geometry" />
        </mxCell>
        <mxCell id="fi_tDTi4I4UgMJIOH_Q9-13" style="edgeStyle=orthogonalEdgeStyle;rounded=0;orthogonalLoop=1;jettySize=auto;html=1;exitX=1;exitY=0.5;exitDx=0;exitDy=0;entryX=0;entryY=0.5;entryDx=0;entryDy=0;entryPerimeter=0;" parent="1" source="kP2LNIARqs1eED2hZesb-21" target="kP2LNIARqs1eED2hZesb-36" edge="1">
          <mxGeometry relative="1" as="geometry">
            <mxPoint x="570" y="548" as="targetPoint" />
            <Array as="points">
              <mxPoint x="480" y="520" />
              <mxPoint x="580" y="520" />
              <mxPoint x="580" y="548" />
            </Array>
          </mxGeometry>
        </mxCell>
        <mxCell id="fi_tDTi4I4UgMJIOH_Q9-14" style="edgeStyle=orthogonalEdgeStyle;rounded=0;orthogonalLoop=1;jettySize=auto;html=1;exitX=0.75;exitY=1;exitDx=0;exitDy=0;entryX=0;entryY=0.15;entryDx=0;entryDy=0;entryPerimeter=0;" parent="1" source="kP2LNIARqs1eED2hZesb-39" target="kP2LNIARqs1eED2hZesb-36" edge="1">
          <mxGeometry relative="1" as="geometry">
            <Array as="points">
              <mxPoint x="480" y="360" />
              <mxPoint x="480" y="450" />
              <mxPoint x="600" y="450" />
            </Array>
          </mxGeometry>
        </mxCell>
        <mxCell id="fi_tDTi4I4UgMJIOH_Q9-15" style="edgeStyle=orthogonalEdgeStyle;rounded=0;orthogonalLoop=1;jettySize=auto;html=1;exitX=0;exitY=0.25;exitDx=0;exitDy=0;entryX=0.91;entryY=0.5;entryDx=0;entryDy=0;entryPerimeter=0;" parent="1" source="kP2LNIARqs1eED2hZesb-38" target="kP2LNIARqs1eED2hZesb-1" edge="1">
          <mxGeometry relative="1" as="geometry">
            <Array as="points">
              <mxPoint x="340" y="125" />
            </Array>
          </mxGeometry>
        </mxCell>
        <mxCell id="h-e5Dq-OJheFKzaR_dxj-4" style="edgeStyle=orthogonalEdgeStyle;rounded=0;orthogonalLoop=1;jettySize=auto;html=1;exitX=1;exitY=0.5;exitDx=0;exitDy=0;entryX=0.5;entryY=0;entryDx=0;entryDy=0;entryPerimeter=0;" parent="1" source="h-e5Dq-OJheFKzaR_dxj-2" target="kP2LNIARqs1eED2hZesb-75" edge="1">
          <mxGeometry relative="1" as="geometry">
            <mxPoint x="970" y="490" as="targetPoint" />
          </mxGeometry>
        </mxCell>
        <mxCell id="h-e5Dq-OJheFKzaR_dxj-2" value="&lt;font style=&quot;font-size: 14px;&quot;&gt;Token Module&lt;/font&gt;" style="rounded=0;whiteSpace=wrap;html=1;" parent="1" vertex="1">
          <mxGeometry x="840" y="345" width="90" height="90" as="geometry" />
        </mxCell>
        <mxCell id="h-e5Dq-OJheFKzaR_dxj-5" style="edgeStyle=orthogonalEdgeStyle;rounded=0;orthogonalLoop=1;jettySize=auto;html=1;exitX=0.5;exitY=1;exitDx=0;exitDy=0;entryX=0.5;entryY=0;entryDx=0;entryDy=0;entryPerimeter=0;" parent="1" source="kP2LNIARqs1eED2hZesb-32" target="kP2LNIARqs1eED2hZesb-36" edge="1">
          <mxGeometry relative="1" as="geometry">
            <Array as="points">
              <mxPoint x="670" y="425" />
            </Array>
          </mxGeometry>
        </mxCell>
        <mxCell id="fAh2Kn4cAt1NxCfHzYwC-1" value="&lt;div style=&quot;text-align: center;&quot;&gt;&lt;span style=&quot;font-size: 16px; text-wrap: nowrap;&quot;&gt;10.0.0.2&lt;/span&gt;&lt;/div&gt;" style="text;whiteSpace=wrap;html=1;" parent="1" vertex="1">
          <mxGeometry x="897.5" y="210" width="90" height="40" as="geometry" />
        </mxCell>
        <mxCell id="l79eTYfMoInAxwR3opUY-1" style="edgeStyle=orthogonalEdgeStyle;rounded=0;orthogonalLoop=1;jettySize=auto;html=1;entryX=0.936;entryY=0.624;entryDx=0;entryDy=0;entryPerimeter=0;" edge="1" parent="1" source="h-e5Dq-OJheFKzaR_dxj-2" target="kP2LNIARqs1eED2hZesb-32">
          <mxGeometry relative="1" as="geometry" />
        </mxCell>
      </root>
    </mxGraphModel>
  </diagram>
</mxfile>
